<svg viewBox="0 0 1200 720" xmlns="http://www.w3.org/2000/svg" role="img" aria-label="Bar chart of the categories of news filtered out by Positron Today, from a total of 70,975 skipped stories">
  <rect width="1200" height="720" fill="#fdfaf4"/>

  <text x="80" y="90" font-family="Georgia, 'Times New Roman', serif" font-size="40" fill="#2b2b2b">what gets skipped</text>
  <text x="80" y="132" font-family="Georgia, serif" font-size="22" fill="#7d7568">70,975 stories filtered out as too negative to publish · 45 sources</text>

  <!-- bars: value is percent of all skipped stories -->
  <g font-family="Georgia, serif" font-size="20">
    <!-- Political conflict 28% -->
    <text x="80" y="205" fill="#2b2b2b">political conflict</text>
    <rect x="360" y="185" width="728" height="28" rx="4" fill="#f59e0b"/>
    <text x="1100" y="206" fill="#7d7568" font-size="18">28%</text>

    <!-- Soft news 12% -->
    <text x="80" y="255" fill="#2b2b2b">soft news &amp; filler</text>
    <rect x="360" y="235" width="312" height="28" rx="4" fill="#f7b13f"/>
    <text x="684" y="256" fill="#7d7568" font-size="18">12%</text>

    <!-- Sports 12% -->
    <text x="80" y="305" fill="#2b2b2b">sport &amp; competition</text>
    <rect x="360" y="285" width="312" height="28" rx="4" fill="#f7b13f"/>
    <text x="684" y="306" fill="#7d7568" font-size="18">12%</text>

    <!-- Crime 8% -->
    <text x="80" y="355" fill="#2b2b2b">crime &amp; violence</text>
    <rect x="360" y="335" width="208" height="28" rx="4" fill="#f59e0b"/>
    <text x="580" y="356" fill="#7d7568" font-size="18">8%</text>

    <!-- Celebrity 7% -->
    <text x="80" y="405" fill="#2b2b2b">celebrity &amp; entertainment</text>
    <rect x="360" y="385" width="182" height="28" rx="4" fill="#f7b13f"/>
    <text x="554" y="406" fill="#7d7568" font-size="18">7%</text>

    <!-- Economic doom 6% -->
    <text x="80" y="455" fill="#2b2b2b">economic doom</text>
    <rect x="360" y="435" width="156" height="28" rx="4" fill="#f59e0b"/>
    <text x="528" y="456" fill="#7d7568" font-size="18">6%</text>

    <!-- Disaster 5% -->
    <text x="80" y="505" fill="#2b2b2b">disaster &amp; accident</text>
    <rect x="360" y="485" width="130" height="28" rx="4" fill="#f59e0b"/>
    <text x="502" y="506" fill="#7d7568" font-size="18">5%</text>

    <!-- War 5% -->
    <text x="80" y="555" fill="#2b2b2b">war &amp; conflict</text>
    <rect x="360" y="535" width="130" height="28" rx="4" fill="#f59e0b"/>
    <text x="502" y="556" fill="#7d7568" font-size="18">5%</text>

    <!-- Health scare 4% -->
    <text x="80" y="605" fill="#2b2b2b">health scare</text>
    <rect x="360" y="585" width="104" height="28" rx="4" fill="#f7b13f"/>
    <text x="476" y="606" fill="#7d7568" font-size="18">4%</text>
  </g>

  <line x1="360" y1="640" x2="360" y2="170" stroke="#d8d0c0" stroke-width="1"/>
  <text x="80" y="680" font-family="Georgia, serif" font-size="17" fill="#a59d8d" font-style="italic">Source: positron.today/negativity · live rejection log</text>
</svg>
