<svg xmlns="http://www.w3.org/2000/svg" viewBox="0 0 100 100">
  <!-- Speech bubble body with tail at bottom-centre -->
  <path fill="#f59e0b"
    d="M15,10 L85,10 Q92,10 92,17 L92,62 Q92,70 85,70 L58,70 L50,84 L42,70 L15,70 Q8,70 8,62 L8,17 Q8,10 15,10 Z"/>
  <!-- 5-pointed star centred at 50,37 -->
  <polygon fill="white" opacity="0.92"
    points="50,20 54,31 66,32 57,39 60,51 50,44 40,51 43,39 34,32 46,31"/>
  <!-- Corner sparkle dots -->
  <circle fill="white" opacity="0.55" cx="22" cy="22" r="2.5"/>
  <circle fill="white" opacity="0.55" cx="78" cy="22" r="2.5"/>
  <circle fill="white" opacity="0.40" cx="80" cy="57" r="1.8"/>
  <circle fill="white" opacity="0.40" cx="20" cy="57" r="1.8"/>
</svg>
